<svg width="60" height="56" viewBox="0 0 60 56" fill="none" xmlns="http://www.w3.org/2000/svg">
<path d="M3 54.5H60" stroke="white" stroke-width="2"/>
<path d="M55.5 55V8H44.5V55" stroke="white" stroke-width="2"/>
<path d="M55.5 55V8H44.5V55" stroke="white" stroke-width="2"/>
<path d="M37 55V25H26V55" stroke="white" stroke-width="2"/>
<path d="M37 55V25H26V55" stroke="white" stroke-width="2"/>
<path d="M19 55V41H8V55" stroke="white" stroke-width="2"/>
<path d="M19 55V41H8V55" stroke="white" stroke-width="2"/>
<path d="M37.3553 1.00013C37.3553 0.447847 36.9076 0.000131384 36.3553 0.000129782L27.3553 0.000129234C26.8031 0.000130246 26.3553 0.447844 26.3553 1.00013C26.3553 1.55242 26.8031 2.00013 27.3553 2.00013L35.3553 2.00013L35.3553 10.0001C35.3553 10.5524 35.8031 11.0001 36.3553 11.0001C36.9076 11.0001 37.3553 10.5524 37.3553 10.0001L37.3553 1.00013ZM1.70711 37.0626L37.0624 1.70724L35.6482 0.293024L0.292893 35.6484L1.70711 37.0626Z" fill="#0075FF"/>
</svg>
